<svg width="64" height="64" viewBox="0 0 64 64" fill="none" xmlns="http://www.w3.org/2000/svg">
<g clip-path="url(#clip0_puzzle_progress_blue_star)">
<path d="M56 0H8C3.58172 0 0 3.58172 0 8V56C0 60.4183 3.58172 64 8 64H56C60.4183 64 64 60.4183 64 56V8C64 3.58172 60.4183 0 56 0Z" fill="#3C6FD3"/>
<path d="M52.1435 11.8555H11.8555V52.1435H52.1435V11.8555Z" fill="#083AAA"/>
<path d="M32.5184 16.4036L37.0645 26.3964C37.1391 26.5579 37.2943 26.6697 37.4682 26.6883L48.1132 27.7565C48.5417 27.8 48.7156 28.3279 48.3989 28.6198L40.1264 36.2588C39.9959 36.383 39.94 36.5631 39.9773 36.737L42.387 46.8603C42.4864 47.2888 42.0268 47.6304 41.648 47.4006L32.3259 41.7924C32.1706 41.6993 31.9719 41.6993 31.8104 41.7924L22.4821 47.4068C22.1033 47.6366 21.6375 47.295 21.7431 46.8665L24.1528 36.7432C24.1962 36.5693 24.1403 36.383 24.0037 36.265L15.7312 28.6136C15.4145 28.3217 15.5946 27.7938 16.0169 27.7503L26.6618 26.6821C26.8357 26.6635 26.991 26.5517 27.0655 26.3902L31.6117 16.3974C31.7918 16.0123 32.3445 16.0123 32.5184 16.4036Z" fill="white"/>
</g>
<defs>
<clipPath id="clip0_puzzle_progress_blue_star">
<rect width="64" height="64" rx="4" fill="white"/>
</clipPath>
</defs>
</svg>