<svg xmlns="http://www.w3.org/2000/svg" width="20" height="20" fill="none"><path fill="#6493E6" d="M16.531 2.284h-5.836l7.033 7.033V3.481a1.187 1.187 0 0 0-1.197-1.197Zm1.185 14.247v-5.936l-7.12 7.121h5.935a1.21 1.21 0 0 0 .461-.082 1.19 1.19 0 0 0 .724-1.103ZM2.284 3.469v5.857l7.042-7.042H3.469A1.202 1.202 0 0 0 2.284 3.47Zm0 13.062a1.185 1.185 0 0 0 1.185 1.185h5.944l-7.129-7.13v5.945Z"/><path fill="#fff" d="M10.003 2.98 6.697 6.285l3.306 3.306 3.306-3.306-3.306-3.305Zm0 7.342-3.306 3.306 3.306 3.306 3.306-3.306-3.306-3.306Z"/><path fill="#000" d="M16.531 1.315H3.47a2.154 2.154 0 0 0-2.154 2.151v13.068a2.153 2.153 0 0 0 2.151 2.15h13.068a2.157 2.157 0 0 0 2.15-2.153V3.47a2.156 2.156 0 0 0-2.153-2.154ZM10.003 2.98l3.306 3.306-3.306 3.306-3.306-3.306 3.306-3.306Zm-7.719.49A1.202 1.202 0 0 1 3.47 2.284h5.857L2.284 9.326V3.469Zm7.13 14.247H3.468a1.185 1.185 0 0 1-1.185-1.185v-5.944l7.13 7.129Zm.583-.782L6.7 13.63l3.304-3.292 3.306 3.292-3.306 3.304h-.006Zm7.713-.403a1.19 1.19 0 0 1-.718 1.103 1.216 1.216 0 0 1-.46.094h-5.937l7.121-7.121-.006 5.924Zm0-7.214-7.027-7.033h5.837a1.185 1.185 0 0 1 1.184 1.185l.006 5.848Z"/><path fill="#000" d="M16.531 2.284a1.185 1.185 0 0 1 1.185 1.185v5.836V3.47a1.185 1.185 0 0 0-1.185-1.185Zm1.185 14.247a1.19 1.19 0 0 1 0 .012v-5.948 5.936ZM9.326 2.284 2.284 9.326l7.042-7.042H3.469h5.857Zm-7.042 8.303 7.13 7.129-7.13-7.13Zm7.722-.996 3.306-3.306-3.306-3.306 3.303 3.306-3.303 3.306Zm3.304 4.037-3.304-3.304 3.303 3.303-3.303 3.307 3.303-3.307Z"/></svg>