<svg xmlns="http://www.w3.org/2000/svg" width="64" height="64" fill="none"><g stroke="#000" stroke-miterlimit="10" stroke-width=".267" clip-path="url(#a)"><path fill="#000" d="M55.899 0H8.1A8.101 8.101 0 0 0 0 8.101v47.797A8.101 8.101 0 0 0 8.101 64H55.9a8.101 8.101 0 0 0 8.1-8.1V8.1A8.101 8.101 0 0 0 55.899 0Z"/><path fill="#fff" d="M60.76 33.355H48.532v12.487H60.76V33.355Zm0 15.187v7.356a4.868 4.868 0 0 1-4.861 4.86h-7.367V48.543H60.76Zm-14.928 0H33.345V60.76h12.487V48.542Zm-15.187 0H18.158V60.76h12.487V48.542Zm0-15.187H18.158v12.487h12.487V33.355Zm-15.188 0H3.241v12.487h12.216V33.355Zm0-15.186H3.241v12.486h12.216V18.17Zm45.303 0H48.532v12.486H60.76V18.17Zm-14.928 0H33.345v12.486h12.487V18.17Zm0-14.929H33.345v12.228h12.487V3.24Zm-15.187 0H18.158v12.228h12.487V3.24Zm-15.188 0v12.228H3.241V8.1a4.861 4.861 0 0 1 4.86-4.86h7.356Z"/></g><defs><clipPath id="a"><rect width="64" height="64" fill="#fff" rx="4"/></clipPath></defs></svg>