<?xml version="1.0" encoding="UTF-8" standalone="no"?><!DOCTYPE svg PUBLIC "-//W3C//DTD SVG 1.1//EN" "http://www.w3.org/Graphics/SVG/1.1/DTD/svg11.dtd"><svg width="100%" height="100%" viewBox="0 0 20 20" version="1.1" xmlns="http://www.w3.org/2000/svg" xmlns:xlink="http://www.w3.org/1999/xlink" xml:space="preserve" xmlns:serif="http://www.serif.com/" style="fill-rule:evenodd;clip-rule:evenodd;stroke-linejoin:round;stroke-miterlimit:2;"><path d="M16.541,2.284l-5.846,0l7.033,7.033l0,-5.846c0,-0.651 -0.536,-1.187 -1.187,-1.187Zm1.175,14.247l0,-5.936l-7.12,7.121l5.935,0c0.158,0.003 0.314,-0.025 0.461,-0.082c0.441,-0.188 0.727,-0.624 0.724,-1.103Zm-15.432,-13.062l0,5.857l7.042,-7.042l-5.857,0c-0.647,0.009 -1.176,0.539 -1.185,1.186l0,-0.001Zm0,13.062c0,0.65 0.535,1.185 1.185,1.185l5.944,0l-7.129,-7.13l0,5.945Z" style="fill:#ff8f00;fill-rule:nonzero;"/><path d="M10.003,2.98l-3.306,3.305l3.306,3.306l3.306,-3.306l-3.306,-3.305Zm0,7.342l-3.306,3.306l3.306,3.306l3.306,-3.306l-3.306,-3.306Z" style="fill:#fff;fill-rule:nonzero;"/><path d="M16.531,1.315l-13.061,0c-1.181,0 -2.152,0.97 -2.154,2.151l0,13.068c0.002,1.179 0.972,2.149 2.151,2.15l13.068,0c1.179,-0.004 2.148,-0.974 2.15,-2.153l0,-13.061c-0.001,-1.181 -0.972,-2.152 -2.153,-2.154l-0.001,-0.001Zm-6.528,1.665l3.306,3.306l-3.306,3.306l-3.306,-3.306l3.306,-3.306Zm-7.719,0.49c0.009,-0.647 0.539,-1.177 1.186,-1.186l5.857,0l-7.043,7.042l0,-5.857l0,0.001Zm7.13,14.247l-5.946,0c-0.65,0 -1.185,-0.535 -1.185,-1.185l0,-5.944l7.13,7.129l0.001,0Zm0.583,-0.782l-3.297,-3.305l3.304,-3.292l3.306,3.292l-3.306,3.304l-0.006,0l-0.001,0.001Zm7.713,-0.403c0.004,0.478 -0.279,0.914 -0.718,1.103c-0.146,0.061 -0.302,0.093 -0.46,0.094l-5.937,0l7.121,-7.121l-0.006,5.924Zm0,-7.214l-7.027,-7.033l5.837,0c0.65,0.001 1.184,0.535 1.184,1.185l0.006,5.848Z" style="fill-rule:nonzero;"/><path d="M16.531,2.284c0.65,0 1.185,0.535 1.185,1.185l0,5.836l0,-5.835c0,-0.65 -0.535,-1.185 -1.185,-1.185l0,-0.001Zm1.185,8.311l0,5.948l0,-5.948Zm-8.39,-8.311l-7.042,7.042l7.042,-7.042l-5.857,0l5.857,0Zm-7.042,8.303l7.13,7.129l-7.13,-7.13l0,0.001Zm7.722,-0.996l3.306,-3.306l-3.306,-3.306l3.303,3.306l-3.303,3.306Zm3.304,4.037l-3.304,-3.304l3.303,3.303l-3.303,3.307l3.303,-3.307l0.001,0.001Z" style="fill-rule:nonzero;"/></svg>