<svg xmlns="http://www.w3.org/2000/svg" width="20" height="20" fill="none"><path fill="#fff" d="M2.284 3.469v3.283h4.518V2.284H3.469A1.185 1.185 0 0 0 2.284 3.47ZM13.21 17.716h3.321a1.202 1.202 0 0 0 .826-.347 1.19 1.19 0 0 0 .347-.838v-3.33H13.21v4.515Zm-.913-4.515h-4.58v4.515h4.58V13.2Zm5.416-5.533H13.21v4.58h4.503v-4.58Zm-5.416-5.384h-4.58v4.468h4.58V2.284ZM6.802 7.668H2.284v4.58h4.518v-4.58Z"/><path fill="#000" d="M18.282 2.223a2.065 2.065 0 0 0-.292-.318 2.145 2.145 0 0 0-1.342-.584H3.34a2.148 2.148 0 0 0-2.025 2.145v13.068a2.154 2.154 0 0 0 2.151 2.15h13.068a2.157 2.157 0 0 0 2.15-2.153V3.47a2.144 2.144 0 0 0-.402-1.246ZM6.802 12.244H2.284V7.668h4.518v4.576Zm0-5.492H2.284V3.469A1.185 1.185 0 0 1 3.47 2.284h3.333v4.468Zm5.495 10.964H7.712v-4.515h4.585v4.515Zm0-10.964H7.712V2.284h4.585v4.468Zm5.419 9.78c0 .313-.126.614-.347.837a1.202 1.202 0 0 1-.85.347H13.21v-4.515h4.506v3.33Zm0-4.288H13.21V7.668h4.506v4.576Z"/></svg>